<mxfile host="Electron" modified="2021-12-08T18:40:23.148Z" agent="5.0 (X11; Linux x86_64) AppleWebKit/537.36 (KHTML, like Gecko) draw.io/15.8.7 Chrome/91.0.4472.164 Electron/13.6.2 Safari/537.36" etag="ShkSdg9wdpty8N4AOXpo" compressed="false" version="15.8.7" type="device">
  <diagram id="prtHgNgQTEPvFCAcTncT" name="Processos Alto Nível">
    <mxGraphModel dx="1673" dy="1054" grid="1" gridSize="10" guides="1" tooltips="1" connect="1" arrows="1" fold="1" page="1" pageScale="1" pageWidth="827" pageHeight="1169" math="0" shadow="0">
      <root>
        <mxCell id="0" />
        <mxCell id="1" parent="0" />
        <mxCell id="NLFkMVxidJrpuLbfi5vq-1" value="&lt;b&gt;Desafio 3: &lt;font color=&quot;#5b7b65&quot;&gt;Novo Processo - Integração de Sistemas de Informação&lt;/font&gt;&lt;/b&gt;&lt;br&gt;Optimização da prospeção de vinhas velhas na Região Demarcada do Douro" style="text;html=1;strokeColor=none;fillColor=none;align=left;verticalAlign=middle;whiteSpace=wrap;rounded=0;fontSize=30;fontFamily=Roboto;fontSource=https%3A%2F%2Ffonts.googleapis.com%2Fcss%3Ffamily%3DRoboto;" parent="1" vertex="1">
          <mxGeometry x="40" y="120" width="1060" height="100" as="geometry" />
        </mxCell>
        <mxCell id="8Ae6zeDYgx-UutW48Nks-54" value="&lt;font style=&quot;font-size: 50px;&quot;&gt;&lt;b style=&quot;font-size: 50px;&quot;&gt;SOS VITIS&lt;/b&gt;&lt;/font&gt;" style="text;html=1;strokeColor=none;fillColor=none;align=center;verticalAlign=middle;whiteSpace=wrap;rounded=0;fontFamily=Roboto;fontSize=50;fontColor=#000000;fontSource=https%3A%2F%2Ffonts.googleapis.com%2Fcss%3Ffamily%3DRoboto;" parent="1" vertex="1">
          <mxGeometry x="40" y="40" width="230" height="80" as="geometry" />
        </mxCell>
        <mxCell id="RrkdCd4so9SFuspl1RXy-1" value="&lt;span style=&quot;font-size: 15px ; background-color: rgb(255 , 255 , 255)&quot;&gt;PN4. Optimização de Recolhas&lt;/span&gt;" style="swimlane;html=1;childLayout=stackLayout;resizeParent=1;resizeParentMax=0;horizontal=1;startSize=20;horizontalStack=0;" parent="1" vertex="1">
          <mxGeometry x="40" y="240" width="1830" height="410" as="geometry">
            <mxRectangle x="40" y="1730" width="250" height="20" as="alternateBounds" />
          </mxGeometry>
        </mxCell>
        <mxCell id="RrkdCd4so9SFuspl1RXy-3" value="&lt;span style=&quot;font-size: 15px&quot;&gt;PORVID&lt;/span&gt;" style="swimlane;html=1;startSize=20;horizontal=0;" parent="RrkdCd4so9SFuspl1RXy-1" vertex="1">
          <mxGeometry y="20" width="1830" height="390" as="geometry" />
        </mxCell>
        <mxCell id="RrkdCd4so9SFuspl1RXy-7" style="edgeStyle=orthogonalEdgeStyle;rounded=0;jumpStyle=arc;orthogonalLoop=1;jettySize=auto;html=1;labelBackgroundColor=default;fontSize=15;startArrow=none;startFill=0;endArrow=open;endFill=0;strokeWidth=2;dashed=1;" parent="RrkdCd4so9SFuspl1RXy-3" source="RrkdCd4so9SFuspl1RXy-8" target="1hHnKpsaH6cNvzyIpWSU-2" edge="1">
          <mxGeometry relative="1" as="geometry">
            <mxPoint x="720" y="130" as="targetPoint" />
          </mxGeometry>
        </mxCell>
        <mxCell id="RrkdCd4so9SFuspl1RXy-8" value="SI PORVID" style="shape=datastore;labelPosition=center;verticalLabelPosition=top;align=center;verticalAlign=bottom;rounded=0;shadow=0;glass=0;sketch=0;fontSize=15;html=1;" parent="RrkdCd4so9SFuspl1RXy-3" vertex="1">
          <mxGeometry x="700" y="40" width="40" height="50" as="geometry" />
        </mxCell>
        <mxCell id="RrkdCd4so9SFuspl1RXy-9" value="" style="points=[[0.25,0.25,0],[0.5,0,0],[0.75,0.25,0],[1,0.5,0],[0.75,0.75,0],[0.5,1,0],[0.25,0.75,0],[0,0.5,0]];shape=mxgraph.bpmn.gateway2;html=1;verticalLabelPosition=bottom;labelBackgroundColor=#ffffff;verticalAlign=top;align=center;perimeter=rhombusPerimeter;outlineConnect=0;outline=none;symbol=none;gwType=exclusive;fontSize=15;strokeWidth=2;" parent="RrkdCd4so9SFuspl1RXy-3" vertex="1">
          <mxGeometry x="830" y="145" width="50" height="50" as="geometry" />
        </mxCell>
        <mxCell id="RrkdCd4so9SFuspl1RXy-10" value="Processo VITIS" style="edgeStyle=orthogonalEdgeStyle;rounded=0;orthogonalLoop=1;jettySize=auto;html=1;fontSize=15;startArrow=none;startFill=0;endArrow=classic;endFill=1;strokeWidth=2;" parent="RrkdCd4so9SFuspl1RXy-3" source="RrkdCd4so9SFuspl1RXy-9" target="RrkdCd4so9SFuspl1RXy-33" edge="1">
          <mxGeometry x="-0.4483" relative="1" as="geometry">
            <mxPoint x="1220" y="170" as="targetPoint" />
            <mxPoint as="offset" />
          </mxGeometry>
        </mxCell>
        <mxCell id="RrkdCd4so9SFuspl1RXy-11" style="edgeStyle=orthogonalEdgeStyle;rounded=0;orthogonalLoop=1;jettySize=auto;html=1;fontSize=15;startArrow=none;startFill=0;endArrow=classic;endFill=1;strokeWidth=2;" parent="RrkdCd4so9SFuspl1RXy-3" source="RrkdCd4so9SFuspl1RXy-9" target="RrkdCd4so9SFuspl1RXy-23" edge="1">
          <mxGeometry relative="1" as="geometry">
            <Array as="points">
              <mxPoint x="870" y="325" />
            </Array>
            <mxPoint x="1140" y="265" as="targetPoint" />
          </mxGeometry>
        </mxCell>
        <mxCell id="RrkdCd4so9SFuspl1RXy-12" value="Não processo VITIS" style="edgeLabel;html=1;align=center;verticalAlign=middle;resizable=0;points=[];fontSize=15;" parent="RrkdCd4so9SFuspl1RXy-11" vertex="1" connectable="0">
          <mxGeometry x="-0.0973" y="-1" relative="1" as="geometry">
            <mxPoint x="56" y="-1" as="offset" />
          </mxGeometry>
        </mxCell>
        <mxCell id="RrkdCd4so9SFuspl1RXy-13" style="edgeStyle=orthogonalEdgeStyle;rounded=0;orthogonalLoop=1;jettySize=auto;html=1;startArrow=none;startFill=0;endArrow=classic;endFill=1;strokeWidth=2;" parent="RrkdCd4so9SFuspl1RXy-3" source="1hHnKpsaH6cNvzyIpWSU-4" target="RrkdCd4so9SFuspl1RXy-17" edge="1">
          <mxGeometry relative="1" as="geometry">
            <mxPoint x="1773.999999999999" y="170.00000000000045" as="targetPoint" />
            <mxPoint x="1750" y="170" as="sourcePoint" />
          </mxGeometry>
        </mxCell>
        <mxCell id="RrkdCd4so9SFuspl1RXy-14" style="edgeStyle=orthogonalEdgeStyle;rounded=0;orthogonalLoop=1;jettySize=auto;html=1;fontSize=15;startArrow=none;startFill=0;endArrow=classic;endFill=1;strokeWidth=2;" parent="RrkdCd4so9SFuspl1RXy-3" source="1hHnKpsaH6cNvzyIpWSU-3" target="1hHnKpsaH6cNvzyIpWSU-4" edge="1">
          <mxGeometry relative="1" as="geometry">
            <mxPoint x="1540" y="170" as="sourcePoint" />
            <mxPoint x="1570" y="170" as="targetPoint" />
          </mxGeometry>
        </mxCell>
        <mxCell id="RrkdCd4so9SFuspl1RXy-15" style="edgeStyle=orthogonalEdgeStyle;rounded=0;orthogonalLoop=1;jettySize=auto;html=1;dashed=1;fontSize=15;startArrow=none;startFill=0;endArrow=open;endFill=0;strokeWidth=2;" parent="RrkdCd4so9SFuspl1RXy-3" source="RrkdCd4so9SFuspl1RXy-16" target="1hHnKpsaH6cNvzyIpWSU-3" edge="1">
          <mxGeometry relative="1" as="geometry">
            <mxPoint x="1450" y="130" as="targetPoint" />
          </mxGeometry>
        </mxCell>
        <mxCell id="RrkdCd4so9SFuspl1RXy-16" value="SI PORVID" style="shape=datastore;labelPosition=center;verticalLabelPosition=top;align=center;verticalAlign=bottom;rounded=0;shadow=0;glass=0;sketch=0;fontSize=15;html=1;" parent="RrkdCd4so9SFuspl1RXy-3" vertex="1">
          <mxGeometry x="1430" y="50" width="40" height="50" as="geometry" />
        </mxCell>
        <mxCell id="RrkdCd4so9SFuspl1RXy-17" value="" style="points=[[0.145,0.145,0],[0.5,0,0],[0.855,0.145,0],[1,0.5,0],[0.855,0.855,0],[0.5,1,0],[0.145,0.855,0],[0,0.5,0]];shape=mxgraph.bpmn.event;html=1;verticalLabelPosition=bottom;labelBackgroundColor=#ffffff;verticalAlign=top;align=center;perimeter=ellipsePerimeter;outlineConnect=0;aspect=fixed;outline=end;symbol=terminate2;rounded=0;shadow=0;glass=0;sketch=0;fontSize=15;" parent="RrkdCd4so9SFuspl1RXy-3" vertex="1">
          <mxGeometry x="1750" y="145" width="50" height="50" as="geometry" />
        </mxCell>
        <mxCell id="RrkdCd4so9SFuspl1RXy-18" style="edgeStyle=orthogonalEdgeStyle;rounded=0;jumpStyle=arc;orthogonalLoop=1;jettySize=auto;html=1;labelBackgroundColor=default;fontSize=15;startArrow=none;startFill=0;endArrow=classic;endFill=1;strokeWidth=2;" parent="RrkdCd4so9SFuspl1RXy-3" source="RrkdCd4so9SFuspl1RXy-19" target="RrkdCd4so9SFuspl1RXy-21" edge="1">
          <mxGeometry relative="1" as="geometry" />
        </mxCell>
        <mxCell id="RrkdCd4so9SFuspl1RXy-19" value="" style="points=[[0.145,0.145,0],[0.5,0,0],[0.855,0.145,0],[1,0.5,0],[0.855,0.855,0],[0.5,1,0],[0.145,0.855,0],[0,0.5,0]];shape=mxgraph.bpmn.event;html=1;verticalLabelPosition=bottom;labelBackgroundColor=#ffffff;verticalAlign=top;align=center;perimeter=ellipsePerimeter;outlineConnect=0;aspect=fixed;outline=standard;symbol=general;" parent="RrkdCd4so9SFuspl1RXy-3" vertex="1">
          <mxGeometry x="70" y="145" width="50" height="50" as="geometry" />
        </mxCell>
        <mxCell id="RrkdCd4so9SFuspl1RXy-20" style="edgeStyle=orthogonalEdgeStyle;rounded=0;jumpStyle=arc;orthogonalLoop=1;jettySize=auto;html=1;labelBackgroundColor=default;fontSize=15;startArrow=none;startFill=0;endArrow=classic;endFill=1;strokeWidth=2;" parent="RrkdCd4so9SFuspl1RXy-3" source="RrkdCd4so9SFuspl1RXy-21" target="RrkdCd4so9SFuspl1RXy-27" edge="1">
          <mxGeometry relative="1" as="geometry">
            <mxPoint x="400" y="169.99999999999955" as="sourcePoint" />
            <mxPoint x="360" y="170" as="targetPoint" />
          </mxGeometry>
        </mxCell>
        <mxCell id="RrkdCd4so9SFuspl1RXy-21" value="Parcelas de interesse a prospetar" style="points=[[0.25,0,0],[0.5,0,0],[0.75,0,0],[1,0.25,0],[1,0.5,0],[1,0.75,0],[0.75,1,0],[0.5,1,0],[0.25,1,0],[0,0.75,0],[0,0.5,0],[0,0.25,0]];shape=mxgraph.bpmn.task;whiteSpace=wrap;rectStyle=rounded;size=10;taskMarker=abstract;isLoopMultiParallel=1;fontSize=15;strokeWidth=1;" parent="RrkdCd4so9SFuspl1RXy-3" vertex="1">
          <mxGeometry x="170" y="130" width="150" height="80" as="geometry" />
        </mxCell>
        <mxCell id="2uTNJzqhU__OVpJ8WhRm-1" style="edgeStyle=orthogonalEdgeStyle;rounded=0;orthogonalLoop=1;jettySize=auto;html=1;strokeWidth=2;" edge="1" parent="RrkdCd4so9SFuspl1RXy-3" source="RrkdCd4so9SFuspl1RXy-23" target="1hHnKpsaH6cNvzyIpWSU-3">
          <mxGeometry relative="1" as="geometry" />
        </mxCell>
        <mxCell id="RrkdCd4so9SFuspl1RXy-23" value="Processos VITIS &lt;br&gt;terminados" style="points=[[0.145,0.145,0],[0.5,0,0],[0.855,0.145,0],[1,0.5,0],[0.855,0.855,0],[0.5,1,0],[0.145,0.855,0],[0,0.5,0]];shape=mxgraph.bpmn.event;html=1;verticalLabelPosition=bottom;labelBackgroundColor=#ffffff;verticalAlign=top;align=center;perimeter=ellipsePerimeter;outlineConnect=0;aspect=fixed;outline=standard;symbol=conditional;fillColor=none;" parent="RrkdCd4so9SFuspl1RXy-3" vertex="1">
          <mxGeometry x="1100" y="300" width="50" height="50" as="geometry" />
        </mxCell>
        <mxCell id="RrkdCd4so9SFuspl1RXy-24" value="Parcela pertence à&lt;br&gt;região demarcada do Douro" style="edgeStyle=orthogonalEdgeStyle;rounded=0;jumpStyle=arc;orthogonalLoop=1;jettySize=auto;html=1;labelBackgroundColor=default;fontSize=15;startArrow=none;startFill=0;endArrow=classic;endFill=1;strokeWidth=2;" parent="RrkdCd4so9SFuspl1RXy-3" source="RrkdCd4so9SFuspl1RXy-27" target="1hHnKpsaH6cNvzyIpWSU-2" edge="1">
          <mxGeometry x="-0.0714" relative="1" as="geometry">
            <mxPoint x="660" y="170" as="targetPoint" />
            <mxPoint x="-1" as="offset" />
          </mxGeometry>
        </mxCell>
        <mxCell id="RrkdCd4so9SFuspl1RXy-25" style="edgeStyle=orthogonalEdgeStyle;rounded=0;jumpStyle=arc;orthogonalLoop=1;jettySize=auto;html=1;labelBackgroundColor=default;fontSize=15;startArrow=none;startFill=0;endArrow=classic;endFill=1;strokeWidth=2;" parent="RrkdCd4so9SFuspl1RXy-3" source="RrkdCd4so9SFuspl1RXy-27" target="RrkdCd4so9SFuspl1RXy-9" edge="1">
          <mxGeometry relative="1" as="geometry">
            <mxPoint x="820" y="250" as="targetPoint" />
            <Array as="points">
              <mxPoint x="385" y="250" />
              <mxPoint x="840" y="250" />
            </Array>
          </mxGeometry>
        </mxCell>
        <mxCell id="RrkdCd4so9SFuspl1RXy-26" value="&lt;span style=&quot;background-color: rgb(248 , 249 , 250)&quot;&gt;Parcela não pertence à&lt;/span&gt;&lt;br style=&quot;background-color: rgb(248 , 249 , 250)&quot;&gt;&lt;span style=&quot;background-color: rgb(248 , 249 , 250)&quot;&gt;região demarcada do Douro&lt;/span&gt;" style="edgeLabel;html=1;align=center;verticalAlign=middle;resizable=0;points=[];fontSize=15;" parent="RrkdCd4so9SFuspl1RXy-25" vertex="1" connectable="0">
          <mxGeometry x="0.1344" y="2" relative="1" as="geometry">
            <mxPoint x="-142" as="offset" />
          </mxGeometry>
        </mxCell>
        <mxCell id="RrkdCd4so9SFuspl1RXy-27" value="" style="points=[[0.25,0.25,0],[0.5,0,0],[0.75,0.25,0],[1,0.5,0],[0.75,0.75,0],[0.5,1,0],[0.25,0.75,0],[0,0.5,0]];shape=mxgraph.bpmn.gateway2;html=1;verticalLabelPosition=bottom;labelBackgroundColor=#ffffff;verticalAlign=top;align=center;perimeter=rhombusPerimeter;outlineConnect=0;outline=none;symbol=none;gwType=exclusive;fontSize=15;strokeWidth=2;" parent="RrkdCd4so9SFuspl1RXy-3" vertex="1">
          <mxGeometry x="360" y="145" width="50" height="50" as="geometry" />
        </mxCell>
        <mxCell id="RrkdCd4so9SFuspl1RXy-28" style="edgeStyle=orthogonalEdgeStyle;rounded=0;jumpStyle=arc;orthogonalLoop=1;jettySize=auto;html=1;labelBackgroundColor=default;fontSize=15;startArrow=none;startFill=0;endArrow=classic;endFill=1;strokeWidth=2;" parent="RrkdCd4so9SFuspl1RXy-3" source="1hHnKpsaH6cNvzyIpWSU-2" target="RrkdCd4so9SFuspl1RXy-9" edge="1">
          <mxGeometry relative="1" as="geometry">
            <mxPoint x="780" y="170" as="sourcePoint" />
          </mxGeometry>
        </mxCell>
        <mxCell id="RrkdCd4so9SFuspl1RXy-29" style="edgeStyle=orthogonalEdgeStyle;rounded=0;jumpStyle=arc;orthogonalLoop=1;jettySize=auto;html=1;labelBackgroundColor=default;fontSize=15;startArrow=none;startFill=0;endArrow=open;endFill=0;strokeWidth=2;" parent="RrkdCd4so9SFuspl1RXy-3" source="RrkdCd4so9SFuspl1RXy-33" target="1hHnKpsaH6cNvzyIpWSU-3" edge="1">
          <mxGeometry relative="1" as="geometry">
            <mxPoint x="1360" y="170" as="targetPoint" />
          </mxGeometry>
        </mxCell>
        <mxCell id="RrkdCd4so9SFuspl1RXy-30" value="Candidatura financiada" style="edgeLabel;html=1;align=center;verticalAlign=middle;resizable=0;points=[];fontSize=15;" parent="RrkdCd4so9SFuspl1RXy-29" vertex="1" connectable="0">
          <mxGeometry x="0.2692" relative="1" as="geometry">
            <mxPoint x="-43" as="offset" />
          </mxGeometry>
        </mxCell>
        <mxCell id="RrkdCd4so9SFuspl1RXy-31" style="edgeStyle=orthogonalEdgeStyle;rounded=0;jumpStyle=arc;orthogonalLoop=1;jettySize=auto;html=1;labelBackgroundColor=default;fontSize=15;startArrow=none;startFill=0;endArrow=open;endFill=0;strokeWidth=2;" parent="RrkdCd4so9SFuspl1RXy-3" source="RrkdCd4so9SFuspl1RXy-33" target="RrkdCd4so9SFuspl1RXy-35" edge="1">
          <mxGeometry relative="1" as="geometry">
            <Array as="points">
              <mxPoint x="1140" y="250" />
            </Array>
          </mxGeometry>
        </mxCell>
        <mxCell id="RrkdCd4so9SFuspl1RXy-32" value="Candidatura &lt;br&gt;aprovada" style="edgeLabel;html=1;align=center;verticalAlign=middle;resizable=0;points=[];fontSize=15;" parent="RrkdCd4so9SFuspl1RXy-31" vertex="1" connectable="0">
          <mxGeometry x="0.0083" y="2" relative="1" as="geometry">
            <mxPoint as="offset" />
          </mxGeometry>
        </mxCell>
        <mxCell id="RrkdCd4so9SFuspl1RXy-33" value="" style="points=[[0.25,0.25,0],[0.5,0,0],[0.75,0.25,0],[1,0.5,0],[0.75,0.75,0],[0.5,1,0],[0.25,0.75,0],[0,0.5,0]];shape=mxgraph.bpmn.gateway2;html=1;verticalLabelPosition=bottom;labelBackgroundColor=#ffffff;verticalAlign=top;align=center;perimeter=rhombusPerimeter;outlineConnect=0;outline=none;symbol=none;gwType=exclusive;fontSize=15;strokeWidth=2;" parent="RrkdCd4so9SFuspl1RXy-3" vertex="1">
          <mxGeometry x="1100" y="145" width="50" height="50" as="geometry" />
        </mxCell>
        <mxCell id="RrkdCd4so9SFuspl1RXy-34" style="edgeStyle=orthogonalEdgeStyle;rounded=0;jumpStyle=arc;orthogonalLoop=1;jettySize=auto;html=1;labelBackgroundColor=default;fontSize=15;startArrow=none;startFill=0;endArrow=open;endFill=0;strokeWidth=2;" parent="RrkdCd4so9SFuspl1RXy-3" source="RrkdCd4so9SFuspl1RXy-35" target="1hHnKpsaH6cNvzyIpWSU-3" edge="1">
          <mxGeometry relative="1" as="geometry">
            <mxPoint x="1450" y="210" as="targetPoint" />
            <Array as="points">
              <mxPoint x="1420" y="245" />
            </Array>
          </mxGeometry>
        </mxCell>
        <mxCell id="RrkdCd4so9SFuspl1RXy-35" value="Candidaturas financiadas &lt;br&gt;terminadas" style="points=[[0.145,0.145,0],[0.5,0,0],[0.855,0.145,0],[1,0.5,0],[0.855,0.855,0],[0.5,1,0],[0.145,0.855,0],[0,0.5,0]];shape=mxgraph.bpmn.event;html=1;verticalLabelPosition=bottom;labelBackgroundColor=#ffffff;verticalAlign=top;align=center;perimeter=ellipsePerimeter;outlineConnect=0;aspect=fixed;outline=standard;symbol=conditional;fillColor=none;" parent="RrkdCd4so9SFuspl1RXy-3" vertex="1">
          <mxGeometry x="1284" y="220" width="50" height="50" as="geometry" />
        </mxCell>
        <mxCell id="1hHnKpsaH6cNvzyIpWSU-2" value="Associar informação IVDP" style="points=[[0.25,0,0],[0.5,0,0],[0.75,0,0],[1,0.25,0],[1,0.5,0],[1,0.75,0],[0.75,1,0],[0.5,1,0],[0.25,1,0],[0,0.75,0],[0,0.5,0],[0,0.25,0]];shape=mxgraph.bpmn.task;whiteSpace=wrap;rectStyle=rounded;size=10;taskMarker=service;fontSize=15;" parent="RrkdCd4so9SFuspl1RXy-3" vertex="1">
          <mxGeometry x="660" y="130" width="120" height="80" as="geometry" />
        </mxCell>
        <mxCell id="1hHnKpsaH6cNvzyIpWSU-3" value="Identificação de vinhas velhas geograficamente próximas" style="points=[[0.25,0,0],[0.5,0,0],[0.75,0,0],[1,0.25,0],[1,0.5,0],[1,0.75,0],[0.75,1,0],[0.5,1,0],[0.25,1,0],[0,0.75,0],[0,0.5,0],[0,0.25,0]];shape=mxgraph.bpmn.task;whiteSpace=wrap;rectStyle=rounded;size=10;taskMarker=service;fontSize=15;" parent="RrkdCd4so9SFuspl1RXy-3" vertex="1">
          <mxGeometry x="1360" y="130" width="180" height="80" as="geometry" />
        </mxCell>
        <mxCell id="2uTNJzqhU__OVpJ8WhRm-2" style="edgeStyle=orthogonalEdgeStyle;rounded=0;orthogonalLoop=1;jettySize=auto;html=1;entryX=1;entryY=0.5;entryDx=0;entryDy=0;strokeWidth=2;dashed=1;endArrow=open;endFill=0;" edge="1" parent="RrkdCd4so9SFuspl1RXy-3" source="1hHnKpsaH6cNvzyIpWSU-4" target="RrkdCd4so9SFuspl1RXy-16">
          <mxGeometry relative="1" as="geometry">
            <Array as="points">
              <mxPoint x="1630" y="75" />
            </Array>
          </mxGeometry>
        </mxCell>
        <mxCell id="1hHnKpsaH6cNvzyIpWSU-4" value="Agrupamento de parcelas para recolha" style="points=[[0.25,0,0],[0.5,0,0],[0.75,0,0],[1,0.25,0],[1,0.5,0],[1,0.75,0],[0.75,1,0],[0.5,1,0],[0.25,1,0],[0,0.75,0],[0,0.5,0],[0,0.25,0]];shape=mxgraph.bpmn.task;whiteSpace=wrap;rectStyle=rounded;size=10;taskMarker=service;fontSize=15;" parent="RrkdCd4so9SFuspl1RXy-3" vertex="1">
          <mxGeometry x="1580" y="130" width="130" height="80" as="geometry" />
        </mxCell>
        <mxCell id="1hHnKpsaH6cNvzyIpWSU-5" value="&lt;span style=&quot;background-color: rgb(255 , 255 , 255)&quot;&gt;PN5. Integração Informação IVDP&lt;/span&gt;" style="swimlane;html=1;childLayout=stackLayout;resizeParent=1;resizeParentMax=0;horizontal=1;startSize=20;horizontalStack=0;fontSize=15;" parent="1" vertex="1">
          <mxGeometry x="40" y="690" width="530" height="500" as="geometry" />
        </mxCell>
        <mxCell id="1hHnKpsaH6cNvzyIpWSU-6" value="IVDP" style="swimlane;html=1;startSize=20;horizontal=0;fontSize=15;" parent="1hHnKpsaH6cNvzyIpWSU-5" vertex="1">
          <mxGeometry y="20" width="530" height="250" as="geometry" />
        </mxCell>
        <mxCell id="1hHnKpsaH6cNvzyIpWSU-10" value="SI IVDP" style="shape=datastore;labelPosition=center;verticalLabelPosition=top;align=center;verticalAlign=bottom;rounded=0;shadow=0;glass=0;sketch=0;fontSize=15;html=1;" parent="1hHnKpsaH6cNvzyIpWSU-6" vertex="1">
          <mxGeometry x="205" y="30" width="40" height="50" as="geometry" />
        </mxCell>
        <mxCell id="1hHnKpsaH6cNvzyIpWSU-11" value="Partilha dados com PORVID" style="points=[[0.25,0,0],[0.5,0,0],[0.75,0,0],[1,0.25,0],[1,0.5,0],[1,0.75,0],[0.75,1,0],[0.5,1,0],[0.25,1,0],[0,0.75,0],[0,0.5,0],[0,0.25,0]];shape=mxgraph.bpmn.task;whiteSpace=wrap;rectStyle=rounded;size=10;taskMarker=send;rounded=0;shadow=0;glass=0;sketch=0;fontSize=15;align=center;verticalAlign=middle;html=1;strokeWidth=1;" parent="1hHnKpsaH6cNvzyIpWSU-6" vertex="1">
          <mxGeometry x="350" y="110" width="130" height="80" as="geometry" />
        </mxCell>
        <mxCell id="1hHnKpsaH6cNvzyIpWSU-12" value="&lt;span style=&quot;font-family: &amp;#34;helvetica&amp;#34;&quot;&gt;Preparação de informação sobre parcelas verificadas&lt;/span&gt;" style="points=[[0.25,0,0],[0.5,0,0],[0.75,0,0],[1,0.25,0],[1,0.5,0],[1,0.75,0],[0.75,1,0],[0.5,1,0],[0.25,1,0],[0,0.75,0],[0,0.5,0],[0,0.25,0]];shape=mxgraph.bpmn.task;whiteSpace=wrap;rectStyle=rounded;size=10;taskMarker=abstract;isLoopStandard=1;fontFamily=Roboto;fontSource=https%3A%2F%2Ffonts.googleapis.com%2Fcss%3Ffamily%3DRoboto;fontSize=15;fontColor=#000000;strokeColor=default;strokeWidth=1;fillColor=default;gradientColor=none;html=1;" parent="1hHnKpsaH6cNvzyIpWSU-6" vertex="1">
          <mxGeometry x="150" y="110" width="150" height="80" as="geometry" />
        </mxCell>
        <mxCell id="1hHnKpsaH6cNvzyIpWSU-13" style="edgeStyle=orthogonalEdgeStyle;rounded=0;jumpStyle=arc;orthogonalLoop=1;jettySize=auto;html=1;labelBackgroundColor=default;fontSize=15;startArrow=none;startFill=0;endArrow=classic;endFill=1;strokeWidth=2;" parent="1hHnKpsaH6cNvzyIpWSU-6" source="1hHnKpsaH6cNvzyIpWSU-16" target="1hHnKpsaH6cNvzyIpWSU-12" edge="1">
          <mxGeometry relative="1" as="geometry">
            <mxPoint x="150" y="150" as="targetPoint" />
            <mxPoint x="90" y="150" as="sourcePoint" />
          </mxGeometry>
        </mxCell>
        <mxCell id="1hHnKpsaH6cNvzyIpWSU-14" style="edgeStyle=orthogonalEdgeStyle;rounded=0;orthogonalLoop=1;jettySize=auto;html=1;fontSize=15;startArrow=none;startFill=0;endArrow=classic;endFill=1;strokeWidth=2;dashed=1;" parent="1hHnKpsaH6cNvzyIpWSU-6" source="1hHnKpsaH6cNvzyIpWSU-10" target="1hHnKpsaH6cNvzyIpWSU-12" edge="1">
          <mxGeometry relative="1" as="geometry">
            <mxPoint x="225" y="190" as="targetPoint" />
          </mxGeometry>
        </mxCell>
        <mxCell id="1hHnKpsaH6cNvzyIpWSU-15" style="edgeStyle=orthogonalEdgeStyle;rounded=0;orthogonalLoop=1;jettySize=auto;html=1;fontSize=15;startArrow=none;startFill=0;endArrow=classic;endFill=1;strokeWidth=2;" parent="1hHnKpsaH6cNvzyIpWSU-6" source="1hHnKpsaH6cNvzyIpWSU-12" target="1hHnKpsaH6cNvzyIpWSU-11" edge="1">
          <mxGeometry relative="1" as="geometry">
            <mxPoint x="300" y="150" as="sourcePoint" />
          </mxGeometry>
        </mxCell>
        <mxCell id="1hHnKpsaH6cNvzyIpWSU-16" value="A cada 12 meses" style="points=[[0.145,0.145,0],[0.5,0,0],[0.855,0.145,0],[1,0.5,0],[0.855,0.855,0],[0.5,1,0],[0.145,0.855,0],[0,0.5,0]];shape=mxgraph.bpmn.event;html=1;verticalLabelPosition=bottom;labelBackgroundColor=#ffffff;verticalAlign=top;align=center;perimeter=ellipsePerimeter;outlineConnect=0;aspect=fixed;outline=standard;symbol=timer;fontSize=15;whiteSpace=wrap;" parent="1hHnKpsaH6cNvzyIpWSU-6" vertex="1">
          <mxGeometry x="50" y="125" width="50" height="50" as="geometry" />
        </mxCell>
        <mxCell id="1hHnKpsaH6cNvzyIpWSU-7" value="PORVID" style="swimlane;html=1;startSize=20;horizontal=0;fontSize=15;" parent="1hHnKpsaH6cNvzyIpWSU-5" vertex="1">
          <mxGeometry y="270" width="530" height="230" as="geometry" />
        </mxCell>
        <mxCell id="1hHnKpsaH6cNvzyIpWSU-23" style="edgeStyle=orthogonalEdgeStyle;rounded=0;orthogonalLoop=1;jettySize=auto;html=1;dashed=1;fontSize=15;strokeWidth=2;" parent="1hHnKpsaH6cNvzyIpWSU-7" source="1hHnKpsaH6cNvzyIpWSU-19" target="1hHnKpsaH6cNvzyIpWSU-21" edge="1">
          <mxGeometry relative="1" as="geometry" />
        </mxCell>
        <mxCell id="1hHnKpsaH6cNvzyIpWSU-19" value="Atualização SI PORVID" style="points=[[0.25,0,0],[0.5,0,0],[0.75,0,0],[1,0.25,0],[1,0.5,0],[1,0.75,0],[0.75,1,0],[0.5,1,0],[0.25,1,0],[0,0.75,0],[0,0.5,0],[0,0.25,0]];shape=mxgraph.bpmn.task;whiteSpace=wrap;rectStyle=rounded;size=10;taskMarker=abstract;rounded=0;shadow=0;glass=0;sketch=0;fontSize=15;align=center;verticalAlign=middle;html=1;" parent="1hHnKpsaH6cNvzyIpWSU-7" vertex="1">
          <mxGeometry x="350" y="30" width="130" height="80" as="geometry" />
        </mxCell>
        <mxCell id="1hHnKpsaH6cNvzyIpWSU-21" value="SI PORVID" style="shape=datastore;labelPosition=center;verticalLabelPosition=bottom;align=center;verticalAlign=top;rounded=0;shadow=0;glass=0;sketch=0;fontSize=15;html=1;" parent="1hHnKpsaH6cNvzyIpWSU-7" vertex="1">
          <mxGeometry x="395" y="140" width="40" height="50" as="geometry" />
        </mxCell>
        <mxCell id="1hHnKpsaH6cNvzyIpWSU-20" style="edgeStyle=orthogonalEdgeStyle;rounded=0;orthogonalLoop=1;jettySize=auto;html=1;fontSize=15;startArrow=oval;startFill=0;endArrow=classic;endFill=1;strokeWidth=2;dashed=1;" parent="1hHnKpsaH6cNvzyIpWSU-5" source="1hHnKpsaH6cNvzyIpWSU-11" target="1hHnKpsaH6cNvzyIpWSU-19" edge="1">
          <mxGeometry relative="1" as="geometry">
            <Array as="points">
              <mxPoint x="415" y="250" />
              <mxPoint x="415" y="250" />
            </Array>
            <mxPoint x="570" y="690" as="targetPoint" />
            <mxPoint x="225" y="840" as="sourcePoint" />
          </mxGeometry>
        </mxCell>
      </root>
    </mxGraphModel>
  </diagram>
</mxfile>
